# xmcd CD database file
#
# Track frame offsets:
#	150
#	19257
#	35908
#	62559
#	90067
#	111208
#	131642
#	154758
#	173551
#	196552
#	217122
#
# Disc length: 3108 seconds
#
# Revision: 0
# Processed by: cddbd v1.5.2PL0 Copyright (c) Steve Scherf et al.
# Submitted via: CDex 1.70beta2
#
DISCID=8b0c220b
DTITLE=Septeto Santiaguero - Oye Mi Son Santiaguero
DYEAR=2010
DGENRE=Salsa
TTITLE0=Esa Niña, Qué Cintura
TTITLE1=Maduro, Pero Sabroso
TTITLE2=Flor de Ausencia
TTITLE3=Cuestiones del Amor
TTITLE4=Colombia
TTITLE5=Ojos Perdidos
TTITLE6=Son Cocos
TTITLE7=Tú Tienes Que Cambiar
TTITLE8=La Acupuntura
TTITLE9=Oye Mi Tono
TTITLE10=La Fiesta del Changüí
EXTD=YEAR: 2010
EXTT0=
EXTT1=
EXTT2=
EXTT3=
EXTT4=
EXTT5=
EXTT6=
EXTT7=
EXTT8=
EXTT9=
EXTT10=
PLAYORDER=
